<svg xmlns="http://www.w3.org/2000/svg" viewBox="0 0 3.79 3.96"><defs><style>.cls-1{fill:#231f20;}</style></defs><g id="Layer_2" data-name="Layer 2"><g id="Layer_1-2" data-name="Layer 1"><path class="cls-1" d="M0,3.42c-.06,0,0,.14,0,.19A1.92,1.92,0,0,0,.66,4a.09.09,0,0,0,.09,0s0,0,0,0v0a.09.09,0,0,0,0-.08L.52,3.64A3.11,3.11,0,0,0,2.78,2.56,3.84,3.84,0,0,0,3.5,1.41,4.83,4.83,0,0,0,3.72.77a1.38,1.38,0,0,0,0-.7.08.08,0,0,0-.15,0,2.32,2.32,0,0,0-.15.59,4.48,4.48,0,0,1-.2.62,4.1,4.1,0,0,1-.67,1.07,3.61,3.61,0,0,1-1,.85,3.26,3.26,0,0,1-1.22.33h0l.25-.17C.68,3.25.82,3.15.84,3a.1.1,0,0,0-.11-.1c-.14,0-.21.15-.31.24A2.07,2.07,0,0,1,0,3.42Z"/></g></g></svg>