<?xml version="1.0" standalone="no"?>
<!DOCTYPE svg PUBLIC "-//W3C//DTD SVG 20010904//EN"
 "http://www.w3.org/TR/2001/REC-SVG-20010904/DTD/svg10.dtd">
<svg version="1.0" xmlns="http://www.w3.org/2000/svg"
 width="64.000000pt" height="64.000000pt" viewBox="0 0 64.000000 64.000000"
 preserveAspectRatio="xMidYMid meet">

<g transform="translate(0.000000,64.000000) scale(0.100000,-0.100000)"
fill="#FFB6C1" stroke="none">
<path d="M211 590 c-80 -19 -135 -99 -128 -186 3 -44 1 -52 -17 -60 -38 -17
-47 -54 -29 -118 12 -44 13 -62 5 -81 -14 -29 -4 -32 38 -10 44 23 60 53 60
115 l1 55 20 -25 c24 -28 20 -69 -12 -132 l-20 -39 48 -21 c26 -12 75 -24 107
-26 58 -5 59 -4 51 19 -29 92 -16 124 51 124 43 0 48 2 55 27 5 20 3 30 -8 36
-13 8 -13 10 1 15 9 4 16 15 16 26 0 11 6 21 13 24 9 3 8 12 -5 35 -11 17 -18
51 -18 79 0 42 -5 56 -35 90 -28 33 -46 44 -86 52 -56 12 -60 12 -108 1z"/>
<path d="M561 313 c21 -41 18 -85 -8 -115 -9 -10 -11 -18 -4 -22 17 -11 44 42
44 84 0 22 -8 51 -17 65 -25 39 -36 30 -15 -12z"/>
<path d="M520 305 c8 -10 11 -31 6 -61 -5 -41 -4 -45 9 -34 18 15 20 81 3 98
-17 17 -33 15 -18 -3z"/>
<path d="M489 300 c-5 -32 -2 -69 6 -67 14 5 19 47 6 60 -6 6 -11 9 -12 7z"/>
</g>
</svg>
