<?xml version="1.0" standalone="no"?>
<!DOCTYPE svg PUBLIC "-//W3C//DTD SVG 20010904//EN"
 "http://www.w3.org/TR/2001/REC-SVG-20010904/DTD/svg10.dtd">
<svg version="1.0" xmlns="http://www.w3.org/2000/svg"
 width="64.000000pt" height="64.000000pt" viewBox="0 0 64.000000 64.000000"
 preserveAspectRatio="xMidYMid meet">

<g transform="translate(0.000000,64.000000) scale(0.100000,-0.100000)"
fill="#D3D3D3" stroke="none">
<path d="M416 582 c-4 -7 -39 -9 -96 -5 -60 4 -104 2 -136 -7 -84 -24 -144
-107 -144 -199 0 -18 14 -64 31 -104 31 -73 40 -140 26 -189 l-7 -28 116 0
116 0 -6 24 c-7 30 7 42 62 51 39 6 62 26 62 54 0 6 -15 18 -32 27 l-33 17 33
14 c25 10 32 19 32 40 0 14 7 35 17 45 15 17 15 20 -7 43 -25 26 -29 75 -15
163 7 43 -5 76 -19 54z"/>
<path d="M550 306 c0 -2 7 -17 15 -32 8 -16 15 -40 15 -54 0 -14 -7 -38 -15
-54 -18 -33 -18 -36 -5 -36 15 0 40 56 40 90 0 34 -25 90 -40 90 -6 0 -10 -2
-10 -4z"/>
<path d="M526 263 c10 -23 10 -63 -1 -87 -6 -14 -5 -18 6 -14 21 7 34 64 21
93 -6 14 -17 25 -23 25 -7 0 -8 -7 -3 -17z"/>
<path d="M493 220 c0 -39 1 -42 13 -25 8 10 14 22 14 25 0 3 -6 15 -14 25 -12
17 -13 14 -13 -25z"/>
</g>
</svg>
